<?xml version="1.0" encoding="UTF-8"?>
<svg width="189px" height="31px" viewBox="0 0 189 31" version="1.1" xmlns="http://www.w3.org/2000/svg" xmlns:xlink="http://www.w3.org/1999/xlink">
    <!-- Generator: Sketch 50 (54983) - http://www.bohemiancoding.com/sketch -->
    <title>Group 10</title>
    <desc>Created with Sketch.</desc>
    <defs></defs>
    <g id="Symbols" stroke="none" stroke-width="1" fill="none" fill-rule="evenodd">
        <g id="Powered-by" transform="translate(-1.000000, -32.000000)">
            <g id="Group-10" transform="translate(1.000000, 32.000000)">
                <g id="Logo-Copy-5">
                    <g id="Logo">
                        <rect id="Rectangle" fill="#5593F0" x="0" y="0.152960526" width="138.640047" height="30.8470395" rx="5"></rect>
                        <path d="M156.963373,30.7280702 C156.340994,30.7280702 155.836457,30.2220587 155.836457,29.5978618 C155.836457,28.973665 156.340994,28.4676535 156.963373,28.4676535 L183.687394,28.4676535 C184.309772,28.4676535 184.81431,28.973665 184.81431,29.5978618 C184.81431,30.2220587 184.309772,30.7280702 183.687394,30.7280702 L156.963373,30.7280702 Z" id="Line" fill="#5593F0" fill-rule="nonzero"></path>
                        <path d="M6.10539826,23.3843333 L6.10539826,7.13775 C6.10539826,6.87597091 6.21959132,6.66736883 6.44798088,6.5119375 C6.67637044,6.35650617 6.94553981,6.27879167 7.25549706,6.27879167 L11.7090712,6.27879167 C13.2099168,6.27879167 14.408944,6.58964967 15.3061887,7.211375 C16.2034334,7.83310033 16.652049,8.93746429 16.652049,10.5245 C16.652049,12.5532879 15.958734,13.8785247 14.5720831,14.50025 C15.4040736,14.8274739 16.0321355,15.2978511 16.4562875,15.9113958 C16.8804396,16.5249406 17.0925124,17.4207024 17.0925124,18.5987083 L17.0925124,19.065 C17.0925124,20.8647312 16.6520534,22.173607 15.7711223,22.9916667 C14.8901911,23.8097263 13.7074772,24.21875 12.2229451,24.21875 L7.25549706,24.21875 C6.91291273,24.21875 6.63558671,24.1369453 6.42351069,23.9733333 C6.21143467,23.8097214 6.10539826,23.61339 6.10539826,23.3843333 Z M8.67476793,21.9118333 L11.7335414,21.9118333 C13.5769714,21.9118333 14.4986725,20.8974546 14.4986725,18.8686667 L14.4986725,18.476 C14.4986725,17.4288837 14.2662081,16.6762801 13.8012722,16.2181667 C13.3363363,15.7600533 12.6470996,15.531 11.7335414,15.531 L8.67476793,15.531 L8.67476793,21.9118333 Z M8.67476793,13.4695 L11.5867202,13.4695 C13.2343878,13.4695 14.0582092,12.6269112 14.0582092,10.9417083 C14.0582092,9.37103381 13.2180745,8.58570833 11.5377799,8.58570833 L8.67476793,8.58570833 L8.67476793,13.4695 Z M19.4661206,18.8932083 L19.4661206,11.7515833 C19.4661206,9.87004615 19.9636761,8.48754608 20.958802,7.60404167 C21.9539279,6.72053725 23.2834615,6.27879167 24.9474425,6.27879167 C26.6114236,6.27879167 27.9450355,6.72053725 28.9483182,7.60404167 C29.9516009,8.48754608 30.4532347,9.87004615 30.4532347,11.7515833 L30.4532347,18.8932083 C30.4532347,20.7747455 29.9516009,22.1572456 28.9483182,23.04075 C27.9450355,23.9242544 26.6114236,24.366 24.9474425,24.366 C23.2834615,24.366 21.9539279,23.9242544 20.958802,23.04075 C19.9636761,22.1572456 19.4661206,20.7747455 19.4661206,18.8932083 Z M22.0599604,18.8932083 C22.0599604,21.0038022 23.0224448,22.0590833 24.9474425,22.0590833 C25.8773143,22.0590833 26.5950993,21.7973082 27.100819,21.27375 C27.6065388,20.7501918 27.8593948,19.9566859 27.8593948,18.8932083 L27.8593948,11.7515833 C27.8593948,10.6881058 27.6065388,9.89459984 27.100819,9.37104167 C26.5950993,8.84748349 25.8773143,8.58570833 24.9474425,8.58570833 C23.0224448,8.58570833 22.0599604,9.64098945 22.0599604,11.7515833 L22.0599604,18.8932083 Z M33.3162466,18.8932083 L33.3162466,11.7515833 C33.3162466,9.87004615 33.8138021,8.48754608 34.8089281,7.60404167 C35.804054,6.72053725 37.1335876,6.27879167 38.7975686,6.27879167 C40.4615497,6.27879167 41.7951616,6.72053725 42.7984443,7.60404167 C43.801727,8.48754608 44.3033608,9.87004615 44.3033608,11.7515833 L44.3033608,18.8932083 C44.3033608,20.7747455 43.801727,22.1572456 42.7984443,23.04075 C41.7951616,23.9242544 40.4615497,24.366 38.7975686,24.366 C37.1335876,24.366 35.804054,23.9242544 34.8089281,23.04075 C33.8138021,22.1572456 33.3162466,20.7747455 33.3162466,18.8932083 Z M35.9100865,18.8932083 C35.9100865,21.0038022 36.8725709,22.0590833 38.7975686,22.0590833 C39.7274404,22.0590833 40.4452254,21.7973082 40.9509451,21.27375 C41.4566648,20.7501918 41.7095209,19.9566859 41.7095209,18.8932083 L41.7095209,11.7515833 C41.7095209,10.6881058 41.4566648,9.89459984 40.9509451,9.37104167 C40.4452254,8.84748349 39.7274404,8.58570833 38.7975686,8.58570833 C36.8725709,8.58570833 35.9100865,9.64098945 35.9100865,11.7515833 L35.9100865,18.8932083 Z M47.337664,23.3597917 L47.337664,7.11320833 C47.337664,6.83506805 47.4640921,6.62646597 47.7169519,6.48739583 C47.9698118,6.34832569 48.2756861,6.27879167 48.6345839,6.27879167 C48.9934818,6.27879167 49.2993561,6.34832569 49.552216,6.48739583 C49.8050758,6.62646597 49.9315039,6.83506805 49.9315039,7.11320833 L49.9315039,14.573875 L55.9022296,6.64691667 C56.065365,6.40149877 56.3100644,6.27879167 56.6363352,6.27879167 C56.9789196,6.27879167 57.3133421,6.42194996 57.6396129,6.70827083 C57.9658837,6.99459171 58.1290167,7.30135948 58.1290167,7.62858333 C58.1290167,7.82491765 58.0637635,7.9967076 57.9332552,8.14395833 L53.2349792,14.0339583 L58.8141819,22.5499167 C58.9120631,22.6971674 58.961003,22.8525964 58.961003,23.0162083 C58.961003,23.327071 58.8019484,23.6174778 58.4838344,23.8874375 C58.1657203,24.1573972 57.8190628,24.292375 57.4438514,24.292375 C57.0360129,24.292375 56.7260603,24.1287655 56.5139843,23.8015417 L51.5220661,16.2181667 L49.9315039,18.2305833 L49.9315039,23.3597917 C49.9315039,23.6215708 49.8050758,23.8301728 49.552216,23.9856042 C49.2993561,24.1410355 48.9934818,24.21875 48.6345839,24.21875 C48.2919996,24.21875 47.9902036,24.1410355 47.729187,23.9856042 C47.4681704,23.8301728 47.337664,23.6215708 47.337664,23.3597917 Z M64.1976231,23.1389167 C64.1976231,23.0407495 64.2057798,22.9671252 64.2220933,22.9180417 L69.0916606,7.01504167 C69.2874231,6.42603872 69.8339185,6.13154167 70.7311632,6.13154167 C71.6447214,6.13154167 72.1993734,6.42603872 72.3951359,7.01504167 L77.240233,22.9180417 C77.2728601,23.0162088 77.2891734,23.0898331 77.2891734,23.1389167 C77.2891734,23.4334181 77.1138055,23.6870128 76.7630644,23.8997083 C76.4123232,24.1124038 76.0411958,24.21875 75.6496708,24.21875 C75.1765782,24.21875 74.8829389,24.0387796 74.7687441,23.6788333 L73.7654664,20.1939167 L67.7213301,20.1939167 L66.7180524,23.6788333 C66.6038577,24.0387796 66.3020617,24.21875 65.8126555,24.21875 C65.4211305,24.21875 65.0540814,24.1124038 64.7114971,23.8997083 C64.3689127,23.6870128 64.1976231,23.4334181 64.1976231,23.1389167 Z M68.2841444,18.107875 L73.1781819,18.107875 L70.7311632,9.69008333 L68.2841444,18.107875 Z M82.8439059,7.45679167 C82.8439059,7.145929 82.9173157,6.87188313 83.0641376,6.63464583 C83.2109595,6.39740854 83.4230323,6.27879167 83.7003625,6.27879167 L93.8554902,6.27879167 C94.1328204,6.27879167 94.3448933,6.3933183 94.4917151,6.622375 C94.638537,6.8514317 94.7119468,7.12138733 94.7119468,7.43225 C94.7119468,7.77583505 94.6344587,8.06624187 94.47948,8.30347917 C94.3245014,8.54071646 94.1165069,8.65933333 93.8554902,8.65933333 L90.0870814,8.65933333 L90.0870814,23.3597917 C90.0870814,23.6215708 89.956575,23.8301728 89.6955584,23.9856042 C89.4345418,24.1410355 89.1327458,24.21875 88.7901615,24.21875 C88.4312636,24.21875 88.1253893,24.1410355 87.8725294,23.9856042 C87.6196696,23.8301728 87.4932415,23.6215708 87.4932415,23.3597917 L87.4932415,8.65933333 L83.7003625,8.65933333 C83.4393458,8.65933333 83.2313513,8.54071646 83.0763727,8.30347917 C82.9213941,8.06624187 82.8439059,7.78401553 82.8439059,7.45679167 Z M96.6695618,23.3597917 L96.6695618,7.13775 C96.6695618,6.87597091 96.7837549,6.66736883 97.0121444,6.5119375 C97.240534,6.35650617 97.5097033,6.27879167 97.8196606,6.27879167 L106.531047,6.27879167 C106.808377,6.27879167 107.02045,6.3933183 107.167272,6.622375 C107.314094,6.8514317 107.387504,7.11320686 107.387504,7.40770833 C107.387504,7.73493219 107.310016,8.0130683 107.155037,8.242125 C107.000058,8.4711817 106.792064,8.58570833 106.531047,8.58570833 L99.2634017,8.58570833 L99.2634017,14.20575 L103.031811,14.20575 C103.292827,14.20575 103.500822,14.3080059 103.6558,14.5125208 C103.810779,14.7170357 103.888267,14.9665402 103.888267,15.2610417 C103.888267,15.5228208 103.814857,15.7559643 103.668035,15.9604792 C103.521214,16.1649941 103.309141,16.26725 103.031811,16.26725 L99.2634017,16.26725 L99.2634017,21.9118333 L106.531047,21.9118333 C106.792064,21.9118333 107.000058,22.02636 107.155037,22.2554167 C107.310016,22.4844734 107.387504,22.7626095 107.387504,23.0898333 C107.387504,23.3843348 107.314094,23.64611 107.167272,23.8751667 C107.02045,24.1042234 106.808377,24.21875 106.531047,24.21875 L97.8196606,24.21875 C97.5097033,24.21875 97.240534,24.1410355 97.0121444,23.9856042 C96.7837549,23.8301728 96.6695618,23.6215708 96.6695618,23.3597917 Z M108.562073,21.5191667 C108.562073,21.208304 108.676266,20.897446 108.904655,20.5865833 C109.133045,20.2757207 109.394058,20.1202917 109.687701,20.1202917 C109.86715,20.1202917 110.083302,20.2225476 110.336161,20.4270625 C110.589021,20.6315774 110.837799,20.8524502 111.082502,21.0896875 C111.327205,21.3269248 111.698333,21.5477976 112.195896,21.7523125 C112.693459,21.9568274 113.252189,22.0590833 113.872104,22.0590833 C114.801975,22.0590833 115.548309,21.8382105 116.111126,21.3964583 C116.673943,20.9547061 116.955347,20.3084487 116.955347,19.4576667 C116.955347,18.6723294 116.682099,18.0178915 116.135596,17.4943333 C115.589092,16.9707752 114.928404,16.553571 114.153511,16.2427083 C113.378618,15.9318457 112.599658,15.5964462 111.816608,15.2365 C111.033558,14.8765538 110.368791,14.3366425 109.822288,13.61675 C109.275784,12.8968575 109.002536,11.9970054 109.002536,10.9171667 C109.002536,10.0500234 109.169748,9.29741986 109.504175,8.65933333 C109.838603,8.02124681 110.291297,7.53041838 110.86227,7.18683333 C111.433244,6.84324828 112.032758,6.59374383 112.660829,6.4383125 C113.288901,6.28288117 113.953667,6.20516667 114.65515,6.20516667 C115.095615,6.20516667 115.556466,6.23379832 116.037715,6.2910625 C116.518965,6.34832668 116.996128,6.44240212 117.469221,6.57329167 C117.942314,6.70418121 118.333833,6.89233211 118.64379,7.13775 C118.953747,7.38316789 119.108724,7.661304 119.108724,7.97216667 C119.108724,8.28302933 119.010844,8.59388733 118.815081,8.90475 C118.619319,9.21561267 118.358306,9.37104167 118.032035,9.37104167 C117.8689,9.37104167 117.648671,9.29332717 117.37134,9.13789583 C117.09401,8.9824645 116.722883,8.8270355 116.257947,8.67160417 C115.793011,8.51617283 115.258751,8.43845833 114.65515,8.43845833 C113.725278,8.43845833 112.983023,8.62251899 112.428362,8.99064583 C111.873702,9.35877267 111.596376,9.91913513 111.596376,10.67175 C111.596376,11.1625858 111.743196,11.5838802 112.036839,11.9356458 C112.330483,12.2874115 112.709767,12.5778183 113.174703,12.806875 C113.639639,13.0359317 114.157586,13.2608947 114.72856,13.4817708 C115.299534,13.7026469 115.866421,13.9603319 116.429238,14.2548333 C116.992055,14.5493348 117.505924,14.8888245 117.97086,15.2733125 C118.435796,15.6578005 118.81508,16.1854411 119.108724,16.85625 C119.402367,17.5270589 119.549187,18.3042039 119.549187,19.1877083 C119.549187,20.8892724 119.039397,22.1858775 118.0198,23.0775625 C117.000204,23.9692475 115.650279,24.4150833 113.969984,24.4150833 C112.469139,24.4150833 111.192623,24.1001351 110.1404,23.4702292 C109.088177,22.8403232 108.562073,22.1899756 108.562073,21.5191667 Z M120.723756,7.45679167 C120.723756,7.145929 120.797166,6.87188313 120.943988,6.63464583 C121.09081,6.39740854 121.302882,6.27879167 121.580213,6.27879167 L131.73534,6.27879167 C132.012671,6.27879167 132.224743,6.3933183 132.371565,6.622375 C132.518387,6.8514317 132.591797,7.12138733 132.591797,7.43225 C132.591797,7.77583505 132.514309,8.06624187 132.35933,8.30347917 C132.204351,8.54071646 131.996357,8.65933333 131.73534,8.65933333 L127.966931,8.65933333 L127.966931,23.3597917 C127.966931,23.6215708 127.836425,23.8301728 127.575408,23.9856042 C127.314392,24.1410355 127.012596,24.21875 126.670012,24.21875 C126.311114,24.21875 126.005239,24.1410355 125.75238,23.9856042 C125.49952,23.8301728 125.373092,23.6215708 125.373092,23.3597917 L125.373092,8.65933333 L121.580213,8.65933333 C121.319196,8.65933333 121.111201,8.54071646 120.956223,8.30347917 C120.801244,8.06624187 120.723756,7.78401553 120.723756,7.45679167 Z" id="BOOK-A-TEST" fill="#F6F6F6"></path>
                        <path d="M146.847075,23.3879364 C146.569745,23.0934349 146.431081,22.7416746 146.431081,22.3326447 C146.431081,21.9236149 146.569745,21.5759448 146.847075,21.2896239 C147.124405,21.003303 147.475141,20.8601447 147.899293,20.8601447 C148.290818,20.8601447 148.629319,21.003303 148.914806,21.2896239 C149.200292,21.5759448 149.343034,21.9236149 149.343034,22.3326447 C149.343034,22.7253134 149.200292,23.0688933 148.914806,23.3633947 C148.629319,23.6578962 148.290818,23.8051447 147.899293,23.8051447 C147.475141,23.8051447 147.124405,23.6660767 146.847075,23.3879364 Z M156.63515,22.7989364 L156.63515,6.55235307 C156.63515,6.27421279 156.761578,6.06561071 157.014438,5.92654057 C157.267297,5.78747043 157.573172,5.7179364 157.93207,5.7179364 C158.290967,5.7179364 158.596842,5.78747043 158.849702,5.92654057 C159.102561,6.06561071 159.228989,6.27421279 159.228989,6.55235307 L159.228989,13.3258531 L165.322066,13.3258531 L165.322066,6.55235307 C165.322066,6.27421279 165.448494,6.06561071 165.701354,5.92654057 C165.954214,5.78747043 166.260088,5.7179364 166.618986,5.7179364 C166.977884,5.7179364 167.283758,5.78747043 167.536618,5.92654057 C167.789478,6.06561071 167.915906,6.27421279 167.915906,6.55235307 L167.915906,22.7989364 C167.915906,23.0607155 167.789478,23.2693176 167.536618,23.4247489 C167.283758,23.5801802 166.977884,23.6578947 166.618986,23.6578947 C166.276402,23.6578947 165.974606,23.5801802 165.713589,23.4247489 C165.452573,23.2693176 165.322066,23.0607155 165.322066,22.7989364 L165.322066,15.3873531 L159.228989,15.3873531 L159.228989,22.7989364 C159.228989,23.0607155 159.102561,23.2693176 158.849702,23.4247489 C158.596842,23.5801802 158.290967,23.6578947 157.93207,23.6578947 C157.589485,23.6578947 157.287689,23.5801802 157.026673,23.4247489 C156.765656,23.2693176 156.63515,23.0607155 156.63515,22.7989364 Z M171.145971,22.7989364 L171.145971,6.55235307 C171.145971,6.27421279 171.272399,6.06561071 171.525259,5.92654057 C171.778119,5.78747043 172.083993,5.7179364 172.442891,5.7179364 C172.801789,5.7179364 173.107663,5.78747043 173.360523,5.92654057 C173.613383,6.06561071 173.739811,6.27421279 173.739811,6.55235307 L173.739811,22.7989364 C173.739811,23.0607155 173.613383,23.2693176 173.360523,23.4247489 C173.107663,23.5801802 172.801789,23.6578947 172.442891,23.6578947 C172.100306,23.6578947 171.79851,23.5801802 171.537494,23.4247489 C171.276477,23.2693176 171.145971,23.0607155 171.145971,22.7989364 Z M175.672955,6.79776974 C175.672955,6.50326826 175.844245,6.24967358 176.186829,6.03697807 C176.529414,5.82428256 176.896463,5.7179364 177.287988,5.7179364 C177.777394,5.7179364 178.07919,5.89790683 178.193385,6.25785307 L182.230966,20.2466031 L186.244076,6.25785307 C186.358271,5.89790683 186.65191,5.7179364 187.125003,5.7179364 C187.516528,5.7179364 187.887656,5.82428256 188.238397,6.03697807 C188.589138,6.24967358 188.764506,6.50326826 188.764506,6.79776974 C188.764506,6.84685332 188.748192,6.92047758 188.715565,7.01864474 L183.870468,22.9216447 C183.788901,23.199785 183.593141,23.4165676 183.283184,23.5719989 C182.973226,23.7274302 182.622491,23.8051447 182.230966,23.8051447 C181.333721,23.8051447 180.787226,23.5106477 180.591463,22.9216447 L175.697426,7.01864474 C175.681112,6.96956116 175.672955,6.89593689 175.672955,6.79776974 Z" id=".-HIV" fill="#5593F0"></path>
                    </g>
                </g>
            </g>
        </g>
    </g>
</svg>
